<?xml version="1.0" encoding="utf-8"?>
<!-- Generator: Adobe Illustrator 18.0.0, SVG Export Plug-In . SVG Version: 6.00 Build 0)  -->
<!DOCTYPE svg PUBLIC "-//W3C//DTD SVG 1.1//EN" "http://www.w3.org/Graphics/SVG/1.1/DTD/svg11.dtd">
<svg version="1.1" id="WhatsApp_logo" xmlns="http://www.w3.org/2000/svg" xmlns:xlink="http://www.w3.org/1999/xlink" x="0px"
	 y="0px" width="1280px" height="1280px" viewBox="0 0 1280 1280" enable-background="new 0 0 1280 1280" xml:space="preserve">
<g id="corner_shadow">
	
		<image overflow="visible" opacity="0.1" width="84" height="85" xlink:href="D9B1DF9D83DD2C8E.png"  transform="matrix(1 0 0 1 -1.9375 1199.2734)">
	</image>
	<g>
		<polygon fill="#FFFFFF" points="41.7,1222.8 35.1,1247 58.7,1240.8 		"/>
	</g>
</g>
<g id="shape_1_">
	
		<image overflow="visible" opacity="0.15" width="1284" height="1290" xlink:href="D9B1DF9D83DD2C92.png"  transform="matrix(1 0 0 1 -3.9375 -2.7266)">
	</image>
	<g>
		<path fill="#FFFFFF" d="M35.1,1247L120.2,936c-52.5-91-80.2-194.2-80.1-300C40.2,305.2,309.5,36,640.4,36
			c160.6,0.1,311.3,62.6,424.6,176c113.3,113.4,175.7,264.2,175.6,424.5c-0.1,330.8-269.4,600.1-600.2,600.1c0,0,0,0,0,0h-0.3
			c-100.5,0-199.2-25.2-286.8-73L35.1,1247z M368,1054.9l18.2,10.8c76.6,45.4,164.4,69.5,253.9,69.5h0.2
			c275,0,498.8-223.7,498.9-498.7c0-133.3-51.8-258.6-146-352.9c-94.2-94.3-219.5-146.2-352.7-146.3c-275.2,0-499,223.7-499.1,498.7
			c0,94.2,26.3,186,76.3,265.4l11.9,18.9l-50.4,184L368,1054.9z"/>
	</g>
</g>
<linearGradient id="shape_green_1_" gradientUnits="userSpaceOnUse" x1="637.8477" y1="1226.0156" x2="637.8477" y2="56.9843">
	<stop  offset="0" style="stop-color:#20B038"/>
	<stop  offset="1" style="stop-color:#60D66A"/>
</linearGradient>
<path id="shape_green" fill="url(#shape_green_1_)" d="M56,1226l82.2-300.2C87.4,838,60.8,738.3,60.8,636.2
	C60.9,316.8,320.9,57,640.3,57c155,0.1,300.5,60.4,409.9,169.9c109.4,109.5,169.6,255,169.6,409.8
	c-0.1,319.4-260.1,579.3-579.4,579.3c0,0,0,0,0,0H640c-97,0-192.3-24.4-276.9-70.5L56,1226z"/>
<g id="shape">
	
		<image overflow="visible" opacity="0.1" width="1242" height="1248" xlink:href="D9B1DF9D83DD2C95.png"  transform="matrix(1 0 0 1 17.0625 17.2734)">
	</image>
	<g>
		<path fill="#FFFFFF" d="M35.1,1247L120.2,936c-52.5-91-80.2-194.2-80.1-300C40.2,305.2,309.5,36,640.4,36
			c160.6,0.1,311.3,62.6,424.6,176c113.3,113.4,175.7,264.2,175.6,424.5c-0.1,330.8-269.4,600.1-600.2,600.1c0,0,0,0,0,0h-0.3
			c-100.5,0-199.2-25.2-286.8-73L35.1,1247z M368,1054.9l18.2,10.8c76.6,45.4,164.4,69.5,253.9,69.5h0.2
			c275,0,498.8-223.7,498.9-498.7c0-133.3-51.8-258.6-146-352.9c-94.2-94.3-219.5-146.2-352.7-146.3c-275.2,0-499,223.7-499.1,498.7
			c0,94.2,26.3,186,76.3,265.4l11.9,18.9l-50.4,184L368,1054.9z"/>
	</g>
</g>
<g id="phone">
	
		<image overflow="visible" opacity="8.000000e-02" width="682" height="639" xlink:href="D9B1DF9D83DD2C96.png"  transform="matrix(1 0 0 1 299.0625 327.2734)">
	</image>
	<g>
		<path fill-rule="evenodd" clip-rule="evenodd" fill="#FFFFFF" d="M490.4,385.2c-11.2-25-23.1-25.5-33.8-25.9
			c-8.7-0.4-18.8-0.4-28.7-0.4c-10,0-26.2,3.8-40,18.8c-13.8,15-52.5,51.3-52.5,125.1c0,73.8,53.8,145.1,61.2,155.1
			c7.5,10,103.8,166.3,256.2,226.4c126.7,50,152.5,40,180,37.5s88.7-36.3,101.2-71.3c12.5-35,12.5-65,8.8-71.3
			c-3.8-6.2-13.8-10-28.8-17.5s-88.7-43.8-102.5-48.8s-23.8-7.5-33.8,7.5c-10,15-38.7,48.8-47.5,58.8c-8.8,10-17.5,11.3-32.5,3.8
			c-15-7.5-63.3-23.3-120.6-74.4c-44.6-39.8-74.7-88.8-83.4-103.9c-8.8-15-0.9-23.1,6.6-30.6c6.7-6.7,15-17.5,22.5-26.3
			c7.5-8.8,10-15,15-25c5-10,2.5-18.8-1.2-26.3S503.7,414.9,490.4,385.2z"/>
	</g>
</g>
</svg>
